<svg id="Layer_2" data-name="Layer 2" xmlns="http://www.w3.org/2000/svg" viewBox="0 0 893 637.56"><defs><style>.cls-1{fill:#135caa;}.cls-2{fill:#fff;}.cls-3{fill:#00b6e2;}.cls-4{fill:#2772b9;}.cls-5{fill:#029cd8;}</style></defs><title>lunchbygeorge</title><rect class="cls-1" width="893" height="637.56"/><path class="cls-2" d="M210.21,77.88h22.62V70.56H218.14V41.89h-7.93v36Z" transform="translate(12 167.93)"/><path class="cls-2" d="M291.95,41.89H284V63.7a8.76,8.76,0,0,1-.53,3.1,7.4,7.4,0,0,1-1.5,2.47,6.87,6.87,0,0,1-2.29,1.63,7.08,7.08,0,0,1-2.9.58,7.25,7.25,0,0,1-2.92-.58,6.78,6.78,0,0,1-2.31-1.63,7.39,7.39,0,0,1-1.5-2.47,8.76,8.76,0,0,1-.53-3.1V41.89H261.6V64a17.35,17.35,0,0,0,1,5.9,13,13,0,0,0,2.87,4.68,13.14,13.14,0,0,0,4.75,3.1,19.93,19.93,0,0,0,13.17,0,13.15,13.15,0,0,0,4.75-3.1A13,13,0,0,0,291,69.9a17.37,17.37,0,0,0,1-5.9V41.89Z" transform="translate(12 167.93)"/><path class="cls-2" d="M323.67,77.88h7.93V52.26h0.1l15.71,25.62h10.37v-36h-7.93v25h-0.1l-15.3-25H323.67v36Z" transform="translate(12 167.93)"/><path class="cls-2" d="M419.13,46.26a12.27,12.27,0,0,0-2.64-2.49,14.51,14.51,0,0,0-3.08-1.63,17.24,17.24,0,0,0-3.25-.89A19.14,19.14,0,0,0,407,41a22.17,22.17,0,0,0-7.78,1.32,17.81,17.81,0,0,0-6.15,3.79,17.17,17.17,0,0,0-4,6,21.87,21.87,0,0,0,0,15.66,17.17,17.17,0,0,0,4,6,17.78,17.78,0,0,0,6.15,3.79A22.17,22.17,0,0,0,407,78.79a17.93,17.93,0,0,0,7.22-1.53A13.76,13.76,0,0,0,420,72.54l-6.61-4.93a8.6,8.6,0,0,1-3.1,2.85,8.93,8.93,0,0,1-4.32,1,9.32,9.32,0,0,1-4-.86,9.77,9.77,0,0,1-3.23-2.41,11.54,11.54,0,0,1-2.16-3.66,14,14,0,0,1,0-9.28,11.25,11.25,0,0,1,2.19-3.68,9.86,9.86,0,0,1,7.45-3.28,9.56,9.56,0,0,1,3.94.76A7.79,7.79,0,0,1,413,51.24Z" transform="translate(12 167.93)"/><path class="cls-2" d="M448.72,77.88h7.93V62.32H472V77.88H480v-36H472V55.31h-15.4V41.89h-7.93v36Z" transform="translate(12 167.93)"/><path class="cls-2" d="M551.14,77.88h14.74a23.24,23.24,0,0,0,4.8-.51A13.79,13.79,0,0,0,575,75.69a9.59,9.59,0,0,0,3.15-3.08,8.65,8.65,0,0,0,1.22-4.75,9.39,9.39,0,0,0-.56-3.25,8,8,0,0,0-1.6-2.67,8.63,8.63,0,0,0-2.49-1.88,10.31,10.31,0,0,0-3.23-1V59A9.36,9.36,0,0,0,576,56.1a7.55,7.55,0,0,0,1.7-5.06,8.5,8.5,0,0,0-1.17-4.73,8.14,8.14,0,0,0-3-2.77,12.88,12.88,0,0,0-4.24-1.32,34,34,0,0,0-4.7-.33H551.14v36Zm7.93-29.28h5.39a10.41,10.41,0,0,1,1.88.18,6,6,0,0,1,1.73.58,3.38,3.38,0,0,1,1.25,1.14,3.33,3.33,0,0,1,.48,1.86,3.66,3.66,0,0,1-.43,1.83,3.44,3.44,0,0,1-1.14,1.22,5,5,0,0,1-1.6.66,8.05,8.05,0,0,1-1.8.2h-5.74V48.6Zm0,14.39h6a15.49,15.49,0,0,1,2.08.15,8.21,8.21,0,0,1,2.08.56,4,4,0,0,1,1.6,1.19,3.18,3.18,0,0,1,.64,2.06,3.82,3.82,0,0,1-.48,2,4,4,0,0,1-1.25,1.32A4.89,4.89,0,0,1,568,71a8.74,8.74,0,0,1-1.86.2h-7.12V63Z" transform="translate(12 167.93)"/><path class="cls-2" d="M617.32,77.88h7.93V62.53l13.52-20.64h-9.4l-8.08,13.47-7.62-13.47H603.8l13.52,20.64V77.88Z" transform="translate(12 167.93)"/><path class="cls-2" d="M180.3,140.91H138.06v22h19.37v17.54a50.56,50.56,0,0,1-9,3.58A45.45,45.45,0,0,1,135,185.75a35.3,35.3,0,0,1-13.8-2.59,30.94,30.94,0,0,1-10.6-7.24,31.91,31.91,0,0,1-6.79-11,42.14,42.14,0,0,1,0-27.83A31.8,31.8,0,0,1,110.61,126a31,31,0,0,1,10.6-7.24,35.34,35.34,0,0,1,13.8-2.59q9.15,0,15.25,2.59a33.48,33.48,0,0,1,11,7.62L178,108.12a46.76,46.76,0,0,0-19.14-10.75A86.43,86.43,0,0,0,135,94.25a66.52,66.52,0,0,0-23.33,4,53.44,53.44,0,0,0-18.45,11.36A51.52,51.52,0,0,0,81.1,127.49,61,61,0,0,0,76.75,151a61,61,0,0,0,4.35,23.48,51.5,51.5,0,0,0,12.12,17.92,53.37,53.37,0,0,0,18.45,11.36,66.52,66.52,0,0,0,23.33,4,111.63,111.63,0,0,0,23.33-2.44,86.09,86.09,0,0,0,22-7.93V140.91Z" transform="translate(12 167.93)"/><path class="cls-2" d="M211.26,205h76.1V183H235V161h46.82v-22H235V119h49.56V97H211.26V205Z" transform="translate(12 167.93)"/><path class="cls-3" d="M314.11,174.46a51.5,51.5,0,0,0,12.12,17.92,53.37,53.37,0,0,0,18.45,11.36,70.64,70.64,0,0,0,46.66,0,53.39,53.39,0,0,0,18.45-11.36,51.5,51.5,0,0,0,12.12-17.92A61,61,0,0,0,426.27,151a61,61,0,0,0-4.35-23.48,51.52,51.52,0,0,0-12.12-17.92,53.46,53.46,0,0,0-18.45-11.36,70.63,70.63,0,0,0-46.66,0,53.44,53.44,0,0,0-18.45,11.36,51.52,51.52,0,0,0-12.12,17.92A61,61,0,0,0,309.77,151,61,61,0,0,0,314.11,174.46Zm22.72-37.36A31.8,31.8,0,0,1,343.62,126a31,31,0,0,1,10.6-7.24,38,38,0,0,1,27.6,0,31,31,0,0,1,10.6,7.24,31.87,31.87,0,0,1,6.79,11.06,42.14,42.14,0,0,1,0,27.83,32,32,0,0,1-6.79,11,31,31,0,0,1-10.6,7.24,38,38,0,0,1-27.6,0,30.94,30.94,0,0,1-10.6-7.24,31.91,31.91,0,0,1-6.79-11A42.14,42.14,0,0,1,336.83,137.1Z" transform="translate(12 167.93)"/><path class="cls-2" d="M451.59,205h23.79V161.8h11.74L509.69,205H538.2l-27.45-45.6q11.44-2.13,17.38-10.14t5.95-19.44q0-9.45-3.28-15.78A26.64,26.64,0,0,0,522,103.93a37.12,37.12,0,0,0-13-5.34A73.74,73.74,0,0,0,493.37,97H451.59V205Zm23.79-87.84h15.55a48.52,48.52,0,0,1,6.56.46,19,19,0,0,1,5.95,1.75,11.22,11.22,0,0,1,4.27,3.74,11.4,11.4,0,0,1,1.68,6.56,10.91,10.91,0,0,1-1.91,6.86,11.22,11.22,0,0,1-4.8,3.58,21.27,21.27,0,0,1-6.48,1.37q-3.58.23-6.79,0.23h-14V117.12Z" transform="translate(12 167.93)"/><path class="cls-2" d="M657.3,140.91H615.06v22h19.37v17.54a50.56,50.56,0,0,1-9,3.58A45.45,45.45,0,0,1,612,185.75a35.3,35.3,0,0,1-13.8-2.59,30.94,30.94,0,0,1-10.6-7.24,31.91,31.91,0,0,1-6.79-11,42.14,42.14,0,0,1,0-27.83A31.8,31.8,0,0,1,587.61,126a31,31,0,0,1,10.6-7.24,35.34,35.34,0,0,1,13.8-2.59q9.15,0,15.25,2.59a33.48,33.48,0,0,1,11,7.62L655,108.12a46.76,46.76,0,0,0-19.14-10.75A86.43,86.43,0,0,0,612,94.25a66.52,66.52,0,0,0-23.33,4,53.44,53.44,0,0,0-18.45,11.36,51.52,51.52,0,0,0-12.12,17.92A61,61,0,0,0,553.76,151a61,61,0,0,0,4.35,23.48,51.5,51.5,0,0,0,12.12,17.92,53.37,53.37,0,0,0,18.45,11.36,66.52,66.52,0,0,0,23.33,4,111.63,111.63,0,0,0,23.33-2.44,86.09,86.09,0,0,0,22-7.93V140.91Z" transform="translate(12 167.93)"/><path class="cls-2" d="M688.26,205h76.1V183H712.05V161h46.82v-22H712.05V119h49.56V97H688.26V205Z" transform="translate(12 167.93)"/><rect class="cls-4" x="61.09" y="216.93" width="750" height="53" transform="translate(9.13 173.14) rotate(-0.68)"/><rect class="cls-5" x="48.93" y="201.07" width="750" height="58" transform="translate(9.29 173) rotate(-0.68)"/><path class="cls-2" d="M158.72,246.65a11,11,0,0,0,3.67-2.53,11.52,11.52,0,0,0,2.38-3.77,12.91,12.91,0,0,0-.09-9.33,11.53,11.53,0,0,0-2.45-3.72,11,11,0,0,0-3.72-2.45,12.82,12.82,0,0,0-9.46.09,11,11,0,0,0-3.67,2.53,11.51,11.51,0,0,0-2.38,3.77,12.91,12.91,0,0,0,.09,9.33,11.51,11.51,0,0,0,2.45,3.72,11,11,0,0,0,3.72,2.45A12.82,12.82,0,0,0,158.72,246.65Zm-8.25-2.59a8.26,8.26,0,0,1-2.68-1.89,8.45,8.45,0,0,1-1.74-2.82,10.32,10.32,0,0,1-.07-7,8.47,8.47,0,0,1,1.69-2.86,8.42,8.42,0,0,1,12.31-.12,8.48,8.48,0,0,1,1.74,2.82,10.32,10.32,0,0,1,.07,7,8.47,8.47,0,0,1-1.69,2.86A8.64,8.64,0,0,1,150.48,244.06Z" transform="translate(12 167.93)"/><path class="cls-2" d="M180.88,246.76l3,0-0.1-9.9,4.86,0a9.24,9.24,0,0,0,3.55-.62,6,6,0,0,0,2.19-1.51,5.08,5.08,0,0,0,1.11-2,7.61,7.61,0,0,0,0-4.35,5.08,5.08,0,0,0-1.15-2,6.05,6.05,0,0,0-2.22-1.47,9.25,9.25,0,0,0-3.56-.55l-7.9.08Zm2.85-19.83,4,0a10.91,10.91,0,0,1,1.76.13,4.74,4.74,0,0,1,1.56.51,2.87,2.87,0,0,1,1.11,1.08,4.38,4.38,0,0,1,0,3.71,2.87,2.87,0,0,1-1.08,1.11,4.74,4.74,0,0,1-1.55.54,10.93,10.93,0,0,1-1.76.16l-4,0Z" transform="translate(12 167.93)"/><path class="cls-2" d="M210.49,246.48l15.07-.15,0-2.86-12,.12-0.07-7.2,10.66-.1,0-2.86-10.66.1-0.07-6.7,11.46-.11,0-2.86-14.5.14Z" transform="translate(12 167.93)"/><path class="cls-2" d="M240.67,246.18l3,0-0.1-9.9,3.4,0,5.81,9.85,3.81,0-6.48-10.19a6.07,6.07,0,0,0,2.29-.7,6.26,6.26,0,0,0,1.73-1.38,5.87,5.87,0,0,0,1.08-1.82,5.78,5.78,0,0,0,.36-2.08,8,8,0,0,0-.34-2.17,5.09,5.09,0,0,0-1.15-2,6,6,0,0,0-2.22-1.47,9.24,9.24,0,0,0-3.56-.55l-7.9.08Zm2.85-19.83,4,0a10.86,10.86,0,0,1,1.76.13,4.74,4.74,0,0,1,1.56.51,2.87,2.87,0,0,1,1.11,1.08,4.38,4.38,0,0,1,0,3.71,2.87,2.87,0,0,1-1.08,1.11,4.72,4.72,0,0,1-1.55.54,10.88,10.88,0,0,1-1.76.16l-4,0Z" transform="translate(12 167.93)"/><path class="cls-2" d="M268,245.91l3.55,0,2.17-5.58,10.7-.1,2.31,5.53,3.55,0-9.84-22.38-2.76,0Zm6.77-8.29,4.15-10.36H279l4.29,10.27Z" transform="translate(12 167.93)"/><path class="cls-2" d="M305.76,245.55l3,0-0.19-19.61,7.24-.07,0-2.86-17.52.17,0,2.86,7.24-.07Z" transform="translate(12 167.93)"/><path class="cls-2" d="M330.07,245.31l3,0-0.22-22.47-3,0Z" transform="translate(12 167.93)"/><path class="cls-2" d="M349.68,245.12l3,0-0.18-18.47h0.06L365.3,245l3.87,0-0.22-22.47-3,0L366.08,241H366l-12.56-18.35-4,0Z" transform="translate(12 167.93)"/><path class="cls-2" d="M396.72,232.09l0,2.86,5,0,0.06,6.25a8.59,8.59,0,0,1-2.45.9,14.92,14.92,0,0,1-3.06.33,8.66,8.66,0,0,1-3.47-.65,8.49,8.49,0,0,1-2.78-1.86,8.76,8.76,0,0,1-1.87-2.82,9.28,9.28,0,0,1-.7-3.53A10,10,0,0,1,388,230a8.46,8.46,0,0,1,1.69-2.86,8.17,8.17,0,0,1,6.13-2.69,10.18,10.18,0,0,1,3.27.49,8,8,0,0,1,3,1.83l2.14-2.34a9.35,9.35,0,0,0-3.32-2.11,14,14,0,0,0-5.09-.73,12.12,12.12,0,0,0-4.72,1,11,11,0,0,0-3.67,2.53,11.51,11.51,0,0,0-2.38,3.77,12.33,12.33,0,0,0-.83,4.67,12.69,12.69,0,0,0,.85,4.51,10.93,10.93,0,0,0,6.19,6.27,12.9,12.9,0,0,0,5.1.9,20.15,20.15,0,0,0,2.17-.15,18.46,18.46,0,0,0,2.28-.42A19.89,19.89,0,0,0,403,244a10.27,10.27,0,0,0,1.86-.91L404.75,232Z" transform="translate(12 167.93)"/><path class="cls-2" d="M439,241.71a6.73,6.73,0,0,0,3.1,2.32,11.08,11.08,0,0,0,4.1.72,9.58,9.58,0,0,0,3-.51,7.39,7.39,0,0,0,2.46-1.39,6.48,6.48,0,0,0,1.64-2.21,6.71,6.71,0,0,0,.59-2.93,5.42,5.42,0,0,0-.86-3.18,6.21,6.21,0,0,0-2.07-1.82,11.42,11.42,0,0,0-2.68-1,24.62,24.62,0,0,1-2.67-.83,6.4,6.4,0,0,1-2.06-1.22,2.83,2.83,0,0,1-.85-2.18,3.44,3.44,0,0,1,.2-1.11,3,3,0,0,1,.7-1.13,3.79,3.79,0,0,1,1.34-.87,5.78,5.78,0,0,1,2.11-.35,5.13,5.13,0,0,1,2.39.52,4.11,4.11,0,0,1,1.63,1.41l2.45-2.28a6.06,6.06,0,0,0-3-2,12.14,12.14,0,0,0-3.53-.47,8.79,8.79,0,0,0-3.47.65,7.44,7.44,0,0,0-2.35,1.56,6,6,0,0,0-1.74,4.14,6.37,6.37,0,0,0,.86,3.47,6.52,6.52,0,0,0,2.07,2,10.83,10.83,0,0,0,2.68,1.16q1.45,0.41,2.67.86a7.13,7.13,0,0,1,2.06,1.12,2.43,2.43,0,0,1,.84,2,3.12,3.12,0,0,1-.4,1.62,3.9,3.9,0,0,1-1.05,1.18,4.73,4.73,0,0,1-1.44.73,5.39,5.39,0,0,1-1.55.25,6.3,6.3,0,0,1-2.66-.56,5,5,0,0,1-2.13-1.8Z" transform="translate(12 167.93)"/><path class="cls-2" d="M469.26,243.95l3,0-0.22-22.47-3,0Z" transform="translate(12 167.93)"/><path class="cls-2" d="M488.88,243.76l3,0-0.18-18.47h0.06l12.68,18.35,3.87,0-0.22-22.47-3,0,0.18,18.47h-0.06l-12.56-18.35-4,0Z" transform="translate(12 167.93)"/><path class="cls-2" d="M542.92,223.68a8.15,8.15,0,0,0-3.53-2.6,11.65,11.65,0,0,0-4.37-.81,12.4,12.4,0,0,0-4.75.94,10.71,10.71,0,0,0-3.67,2.53,11.38,11.38,0,0,0-2.36,3.83,13.17,13.17,0,0,0-.81,4.82,11.68,11.68,0,0,0,6.85,10.53,11.09,11.09,0,0,0,4.82,1,10.8,10.8,0,0,0,3.41-.53,11.92,11.92,0,0,0,2.51-1.17,8.92,8.92,0,0,0,1.67-1.32,10.33,10.33,0,0,0,.88-1L541,237.95a7.29,7.29,0,0,1-2.45,2.25,7,7,0,0,1-3.39.83,8.51,8.51,0,0,1-3.53-.66,7.72,7.72,0,0,1-2.65-1.88,8.41,8.41,0,0,1-1.68-2.78,9.87,9.87,0,0,1-.6-3.36,10.41,10.41,0,0,1,.57-3.58,8.9,8.9,0,0,1,1.67-2.92,7.92,7.92,0,0,1,2.62-2,8.08,8.08,0,0,1,3.44-.75,7.19,7.19,0,0,1,3,.64,6.29,6.29,0,0,1,2.43,1.88Z" transform="translate(12 167.93)"/><path class="cls-2" d="M558.06,243.08l15.07-.15,0-2.86-12,.12L561,233l10.66-.1,0-2.86-10.66.1-0.07-6.7,11.46-.11,0-2.86-14.5.14Z" transform="translate(12 167.93)"/><path class="cls-2" d="M613.54,242.54l3,0L616.36,220l-2.7,0-6.2,5.23,1.8,2.11,4.09-3.85Z" transform="translate(12 167.93)"/><path class="cls-2" d="M638.42,242.3l3.59,0,5.59-9q0.5-.8.91-1.56a13.53,13.53,0,0,0,.7-1.55,9.14,9.14,0,0,0,.44-1.64,10.47,10.47,0,0,0,.14-1.91,7,7,0,0,0-.65-3,7.08,7.08,0,0,0-1.69-2.27,7.3,7.3,0,0,0-2.46-1.44,8.68,8.68,0,0,0-3-.48,8.92,8.92,0,0,0-3,.52,7.09,7.09,0,0,0-2.43,1.47,6.87,6.87,0,0,0-1.64,2.38,8,8,0,0,0-.59,3.26,7.42,7.42,0,0,0,.67,3.18,6.66,6.66,0,0,0,1.66,2.21,6.49,6.49,0,0,0,2.25,1.26,7.69,7.69,0,0,0,2.45.39,5.62,5.62,0,0,0,2.47-.53H644Zm8-13.73a4.22,4.22,0,0,1-.94,1.48,4.41,4.41,0,0,1-1.47,1,5.37,5.37,0,0,1-3.81,0,4.41,4.41,0,0,1-1.48-1,4.22,4.22,0,0,1-1-1.47,5.42,5.42,0,0,1,0-3.75,4.22,4.22,0,0,1,.94-1.48,4.42,4.42,0,0,1,1.47-1,5.37,5.37,0,0,1,3.81,0,4.43,4.43,0,0,1,1.49,1,4.23,4.23,0,0,1,1,1.47A5.43,5.43,0,0,1,646.42,228.57Z" transform="translate(12 167.93)"/><path class="cls-2" d="M673.53,241.87a6.63,6.63,0,0,0,2.32-1.37,6.41,6.41,0,0,0,1.53-2.17,6.88,6.88,0,0,0,.54-2.86,5.47,5.47,0,0,0-.35-1.93,5.81,5.81,0,0,0-.92-1.59,5.44,5.44,0,0,0-1.36-1.19,6.3,6.3,0,0,0-1.71-.73v-0.1a4.21,4.21,0,0,0,1.26-.58,4.58,4.58,0,0,0,1.12-1.06,5.43,5.43,0,0,0,.79-1.55,6.26,6.26,0,0,0,.3-2.08,5,5,0,0,0-.55-2.3,5.36,5.36,0,0,0-1.45-1.75A6.66,6.66,0,0,0,673,219.5a8.23,8.23,0,0,0-5,0,6.67,6.67,0,0,0-2.08,1.15,5.37,5.37,0,0,0-1.41,1.78,5,5,0,0,0-.5,2.31,6.27,6.27,0,0,0,.34,2.08,5.4,5.4,0,0,0,.82,1.53,4.55,4.55,0,0,0,1.14,1,4.19,4.19,0,0,0,1.28.56v0.1a6.29,6.29,0,0,0-1.69.76,5.44,5.44,0,0,0-1.34,1.22,5.82,5.82,0,0,0-.89,1.61,5.47,5.47,0,0,0-.31,1.94,6.88,6.88,0,0,0,.6,2.85,6.41,6.41,0,0,0,1.58,2.14,6.61,6.61,0,0,0,2.35,1.33A9.19,9.19,0,0,0,673.53,241.87ZM668,222.62a3.48,3.48,0,0,1,2.48-1,3.4,3.4,0,0,1,2.56,1,3.52,3.52,0,0,1,1,2.55,4,4,0,0,1-.21,1.34,3.28,3.28,0,0,1-.66,1.13,3.35,3.35,0,0,1-1.09.8,3.63,3.63,0,0,1-1.54.32,3.39,3.39,0,0,1-1.51-.3,3.54,3.54,0,0,1-1.1-.8,3.49,3.49,0,0,1-.69-1.12,3.68,3.68,0,0,1-.25-1.3A3.39,3.39,0,0,1,668,222.62Zm1,16.81a4.2,4.2,0,0,1-1.37-.8,3.79,3.79,0,0,1-.95-1.29,4.25,4.25,0,0,1-.37-1.76,3.93,3.93,0,0,1,1.18-3,4.38,4.38,0,0,1,3.07-1.22,5.06,5.06,0,0,1,1.67.25,4,4,0,0,1,1.37.78,3.63,3.63,0,0,1,.93,1.29,4.51,4.51,0,0,1,.35,1.79,4,4,0,0,1-1.16,3,4.25,4.25,0,0,1-3.08,1.19A4.7,4.7,0,0,1,669,239.43Z" transform="translate(12 167.93)"/><path class="cls-2" d="M691.69,237.27a6.2,6.2,0,0,0,2.75,3.69,8.6,8.6,0,0,0,4.53,1.13,9.68,9.68,0,0,0,2.84-.44,7.24,7.24,0,0,0,2.37-1.25,6,6,0,0,0,1.63-2,6.2,6.2,0,0,0,.59-2.85,6.76,6.76,0,0,0-.31-2,5.46,5.46,0,0,0-.87-1.69,5,5,0,0,0-1.41-1.26,5.38,5.38,0,0,0-1.88-.68v-0.06a5.29,5.29,0,0,0,2.76-1.93,5.1,5.1,0,0,0,1-3.18,6.22,6.22,0,0,0-.58-2.71,5.42,5.42,0,0,0-1.53-1.91,6.32,6.32,0,0,0-2.22-1.1,9.33,9.33,0,0,0-2.62-.34,8.15,8.15,0,0,0-4.07,1.07A6.25,6.25,0,0,0,692,223l3.12,1a4.43,4.43,0,0,1,1.49-1.9,3.76,3.76,0,0,1,2.23-.74,4,4,0,0,1,2.71.89,3.39,3.39,0,0,1,1.11,2.72,4.17,4.17,0,0,1-.24,1.49,2.38,2.38,0,0,1-.88,1.12,4.81,4.81,0,0,1-1.74.7,14.06,14.06,0,0,1-2.85.27l0,2.67a19.44,19.44,0,0,1,2.19.11,6.56,6.56,0,0,1,2,.54,3.74,3.74,0,0,1,1.52,1.25,3.84,3.84,0,0,1,.61,2.23A3.89,3.89,0,0,1,703,237a3.78,3.78,0,0,1-.94,1.28,4.63,4.63,0,0,1-1.37.84,4.53,4.53,0,0,1-1.66.32,3.93,3.93,0,0,1-2.68-.77,5.4,5.4,0,0,1-1.46-2.4Z" transform="translate(12 167.93)"/></svg>